<?xml version="1.0"?>
<svg version="1.1" xmlns="http://www.w3.org/2000/svg" width="400px" height="200px" style=""><path fill="#ffffff" d="M84.787109375,131.376953125q0-0.41015625,0.2490234375-0.6591796875t0.6591796875-0.3369140625t0.8642578125-0.1171875t0.9521484375-0.087890625q5.888671875-0.1171875,11.7919921875-0.234375t11.8505859375-0.1171875q1.025390625,0,1.552734375,0.4248046875t0.556640625,0.8935546875t-0.4833984375,0.8935546875t-1.6259765625,0.4248046875q-5.56640625,0-11.103515625,0.05859375t-11.103515625,0.05859375q-0.05859375,0-0.7177734375,0.029296875t-1.4208984375-0.05859375t-1.3916015625-0.3515625t-0.6298828125-0.8203125z M119.28916015625,124.43359375q0-1.025390625,0.703125-1.3037109375t1.5234375-0.2783203125q1.435546875,0,2.431640625,1.2890625t1.8896484375,2.8271484375t1.7724609375,2.8271484375t2.080078125,1.2890625q0.908203125,0,1.6552734375-0.4541015625t1.2890625-1.142578125t0.8349609375-1.552734375t0.29296875-1.7138671875q0-2.2265625-0.8935546875-4.599609375t-2.28515625-4.892578125t-2.9443359375-5.15625t-2.9296875-5.361328125t-2.28515625-5.5517578125t-0.908203125-5.6982421875q0-4.306640625,2.578125-6.6796875t6.796875-2.373046875q1.435546875,0,2.900390625,0.41015625t2.6953125,1.23046875t2.0068359375,2.021484375t0.7763671875,2.8125q0,0.52734375-0.7763671875,0.6884765625t-1.1279296875,0.1611328125q-0.52734375,0-1.142578125-0.1318359375t-0.791015625-0.7177734375t-0.498046875-1.34765625t-0.8056640625-1.4208984375t-1.142578125-1.142578125t-1.4501953125-0.4833984375q-1.318359375,0-2.2412109375,0.5419921875t-1.494140625,1.4501953125t-0.849609375,2.0361328125t-0.2783203125,2.3291015625q0,2.8125,0.966796875,5.6689453125t2.40234375,5.68359375t3.1201171875,5.5810546875t3.1201171875,5.361328125t2.40234375,5.09765625t0.966796875,4.716796875q0,1.9921875-0.9375,3.369140625t-2.373046875,2.2412109375t-3.1787109375,1.259765625t-3.4130859375,0.3955078125q-1.787109375,0-3.662109375-0.7177734375t-3.369140625-1.9775390625t-2.4609375-2.9443359375t-0.966796875-3.6474609375z M145.6759765625,119.21875l0-0.849609375q0-1.0546875,0.05859375-1.9921875q0.05859375-1.318359375,0.05859375-2.16796875q0-0.46875,0.05859375-1.0693359375t0.29296875-0.9521484375q0.29296875-0.29296875,0.6884765625-0.6005859375t0.8642578125-0.3076171875q1.494140625,0,2.34375,0.3369140625t0.908203125,1.3916015625l0.1171875,0.908203125q0.52734375-1.259765625,1.40625-3.1201171875t2.0361328125-3.544921875t2.607421875-2.87109375t3.0615234375-1.1865234375q1.494140625,0,2.4609375,1.40625t1.5380859375,3.5888671875t0.8056640625,4.86328125t0.322265625,5.2587890625t0.1171875,4.7021484375t0.205078125,3.2080078125q0.1171875,0.908203125,0.3955078125,1.9189453125t0.2783203125,1.8603515625q0,0.234375-0.3369140625,0.4541015625t-0.7177734375,0.3662109375t-0.7763671875,0.234375t-0.5712890625,0.087890625q-1.142578125,0-1.6259765625-1.7138671875t-0.6005859375-4.2919921875t-0.1171875-5.5810546875t-0.205078125-5.5810546875t-0.8349609375-4.2919921875t-2.0068359375-1.7724609375q-1.259765625,0-2.607421875,1.6259765625t-2.314453125,4.3212890625q-0.9375,2.6953125-1.2890625,6.123046875q-0.1171875,1.083984375-0.1171875,2.16796875q0,2.373046875,0.498046875,4.74609375q0.05859375,0.41015625-0.3369140625,0.615234375t-0.9814453125,0.322265625t-1.1865234375,0.146484375t-0.9228515625,0.029296875q-1.142578125,0-1.8310546875-0.8056640625t-1.0693359375-2.0654296875t-0.5126953125-2.8271484375t-0.1611328125-3.0908203125z M172.29716796875,119.072265625q0-1.9921875,0.5419921875-3.837890625t1.6259765625-3.2958984375t2.7099609375-2.314453125t3.7646484375-0.8642578125q1.318359375,0,2.9150390625,0.3955078125t3.0029296875,1.171875t2.34375,1.9775390625t0.9375,2.75390625q0,0.732421875-0.2490234375,1.11328125t-1.0107421875,0.380859375l-0.322265625-0.05859375q0.849609375,2.28515625,1.46484375,4.6875t1.201171875,4.8046875q0.234375,0.46875,0.3515625,0.8349609375t0.1171875,0.7177734375q0,0.46875-0.263671875,0.7763671875t-0.6884765625,0.4541015625t-0.87890625,0.205078125t-0.8056640625,0.05859375q-1.259765625,0-1.8896484375-0.439453125t-0.908203125-1.201171875t-0.3369140625-1.7138671875t-0.234375-1.9189453125q-0.3515625,1.142578125-0.9228515625,2.2265625t-1.34765625,1.9482421875t-1.8310546875,1.376953125t-2.373046875,0.5126953125q-1.93359375,0-3.251953125-1.11328125t-2.1240234375-2.7392578125t-1.171875-3.4716796875t-0.3662109375-3.427734375z M176.45732421875,118.662109375q0,1.083984375,0.146484375,2.28515625t0.4833984375,2.373046875t0.8642578125,2.2119140625t1.318359375,1.8310546875q1.435546875-1.552734375,2.1240234375-3.779296875t1.23046875-4.2919921875t1.23046875-3.544921875t2.1240234375-1.4794921875q0.908203125,0,1.5234375,0.322265625q-0.29296875-0.732421875-0.966796875-1.4208984375t-1.5087890625-1.259765625t-1.728515625-0.9375t-1.6845703125-0.3662109375q-0.234375,0-0.5419921875,0.0732421875t-0.4833984375,0.0146484375q-1.201171875,0.3515625-1.9775390625,1.2158203125t-1.259765625,2.0361328125t-0.6884765625,2.40234375t-0.205078125,2.314453125z M197.687890625,108.466796875q0-1.376953125,0.5419921875-2.0361328125t1.9775390625-0.6591796875q0.849609375,0,1.5966796875,0.3515625t0.7470703125,1.494140625q0.1171875,1.669921875,0.1171875,3.5009765625t0.322265625,3.4716796875q0.732421875-1.201171875,1.6552734375-2.40234375t2.0361328125-2.138671875t2.431640625-1.5087890625t2.87109375-0.5712890625q2.109375,0,3.57421875,0.87890625t2.4169921875,2.28515625t1.376953125,3.1787109375t0.4248046875,3.5595703125q0,2.75390625-0.8349609375,4.4970703125t-2.2119140625,2.7392578125t-3.1201171875,1.34765625t-3.5009765625,0.3515625q-1.552734375,0-2.900390625-0.6005859375t-1.875-2.2705078125q0-0.46875,0.6884765625-0.5859375t0.9814453125-0.1171875q0.966796875,0,1.435546875,0.52734375q0.3515625,0.41015625,0.7763671875,0.8349609375t0.8935546875,0.4248046875q0.908203125,0,1.904296875-0.5126953125t1.8310546875-1.34765625t1.40625-1.9775390625t0.5712890625-2.34375q0-1.025390625-0.17578125-2.548828125t-0.6005859375-2.9296875t-1.171875-2.431640625t-1.8896484375-1.025390625q-1.728515625,0-3.1201171875,1.58203125t-2.314453125,3.80859375t-1.435546875,4.62890625t-0.5126953125,4.013671875t0.205078125,4.072265625t0.4248046875,5.1123046875t0.4248046875,5.1123046875t0.205078125,4.072265625q0,0.41015625-0.3369140625,0.6591796875t-0.8056640625,0.3955078125t-0.9521484375,0.17578125t-0.7177734375,0.029296875q-0.791015625,0-1.6552734375-0.17578125t-1.1865234375-1.083984375q-0.41015625-1.435546875-0.76171875-4.0869140625t-0.6298828125-5.859375t-0.4833984375-6.73828125t-0.3515625-6.8115234375t-0.2197265625-6.005859375t-0.0732421875-4.3359375z M223.98681640625,88.310546875q0-0.41015625,0.5712890625-0.6298828125t0.7470703125-0.2197265625l1.083984375-0.17578125q1.083984375-0.17578125,2.197265625-0.3076171875t2.16796875-0.2490234375q3.720703125-0.46875,7.44140625-0.9228515625t7.5-0.4541015625q0.29296875,0,0.8056640625,0.029296875t1.025390625,0.1611328125t0.87890625,0.3662109375t0.3662109375,0.64453125q0,0.29296875-0.2783203125,0.5126953125t-0.6591796875,0.3369140625t-0.7763671875,0.146484375t-0.6298828125,0.029296875l-0.5126953125,0t-0.5126953125-0.1171875q-1.552734375,0-3.0615234375,0.146484375t-3.0615234375,0.263671875q0.41015625,0.46875,0.439453125,1.318359375t0.05859375,1.46484375q0,10.37109375,0.146484375,20.625t0.263671875,20.712890625l0,0.05859375q-0.966796875,0.849609375-1.6552734375,1.083984375t-1.3916015625,0.234375q-0.673828125,0-1.3623046875-0.2490234375t-1.6552734375-1.0693359375l0-0.05859375l0.234375-22.998046875q0-2.28515625-0.05859375-5.0390625t-0.05859375-5.5810546875t0.087890625-5.4638671875t0.46875-4.599609375q-1.728515625,0.17578125-3.662109375,0.52734375q-1.669921875,0.29296875-3.193359375,0.29296875l-0.52734375,0q-0.1171875,0-0.6884765625,0.029296875t-1.171875-0.029296875t-1.083984375-0.234375t-0.4833984375-0.5859375z M252.9517578125,119.072265625q0-1.9921875,0.5419921875-3.837890625t1.6259765625-3.2958984375t2.7099609375-2.314453125t3.7646484375-0.8642578125q1.318359375,0,2.9150390625,0.3955078125t3.0029296875,1.171875t2.34375,1.9775390625t0.9375,2.75390625q0,0.732421875-0.2490234375,1.11328125t-1.0107421875,0.380859375l-0.322265625-0.05859375q0.849609375,2.28515625,1.46484375,4.6875t1.201171875,4.8046875q0.234375,0.46875,0.3515625,0.8349609375t0.1171875,0.7177734375q0,0.46875-0.263671875,0.7763671875t-0.6884765625,0.4541015625t-0.87890625,0.205078125t-0.8056640625,0.05859375q-1.259765625,0-1.8896484375-0.439453125t-0.908203125-1.201171875t-0.3369140625-1.7138671875t-0.234375-1.9189453125q-0.3515625,1.142578125-0.9228515625,2.2265625t-1.34765625,1.9482421875t-1.8310546875,1.376953125t-2.373046875,0.5126953125q-1.93359375,0-3.251953125-1.11328125t-2.1240234375-2.7392578125t-1.171875-3.4716796875t-0.3662109375-3.427734375z M257.1119140625,118.662109375q0,1.083984375,0.146484375,2.28515625t0.4833984375,2.373046875t0.8642578125,2.2119140625t1.318359375,1.8310546875q1.435546875-1.552734375,2.1240234375-3.779296875t1.23046875-4.2919921875t1.23046875-3.544921875t2.1240234375-1.4794921875q0.908203125,0,1.5234375,0.322265625q-0.29296875-0.732421875-0.966796875-1.4208984375t-1.5087890625-1.259765625t-1.728515625-0.9375t-1.6845703125-0.3662109375q-0.234375,0-0.5419921875,0.0732421875t-0.4833984375,0.0146484375q-1.201171875,0.3515625-1.9775390625,1.2158203125t-1.259765625,2.0361328125t-0.6884765625,2.40234375t-0.205078125,2.314453125z M278.34248046875,108.466796875q0-1.376953125,0.5419921875-2.0361328125t1.9775390625-0.6591796875q0.849609375,0,1.5966796875,0.3515625t0.7470703125,1.494140625q0.1171875,1.669921875,0.1171875,3.5009765625t0.322265625,3.4716796875q0.732421875-1.201171875,1.6552734375-2.40234375t2.0361328125-2.138671875t2.431640625-1.5087890625t2.87109375-0.5712890625q2.109375,0,3.57421875,0.87890625t2.4169921875,2.28515625t1.376953125,3.1787109375t0.4248046875,3.5595703125q0,2.75390625-0.8349609375,4.4970703125t-2.2119140625,2.7392578125t-3.1201171875,1.34765625t-3.5009765625,0.3515625q-1.552734375,0-2.900390625-0.6005859375t-1.875-2.2705078125q0-0.46875,0.6884765625-0.5859375t0.9814453125-0.1171875q0.966796875,0,1.435546875,0.52734375q0.3515625,0.41015625,0.7763671875,0.8349609375t0.8935546875,0.4248046875q0.908203125,0,1.904296875-0.5126953125t1.8310546875-1.34765625t1.40625-1.9775390625t0.5712890625-2.34375q0-1.025390625-0.17578125-2.548828125t-0.6005859375-2.9296875t-1.171875-2.431640625t-1.8896484375-1.025390625q-1.728515625,0-3.1201171875,1.58203125t-2.314453125,3.80859375t-1.435546875,4.62890625t-0.5126953125,4.013671875t0.205078125,4.072265625t0.4248046875,5.1123046875t0.4248046875,5.1123046875t0.205078125,4.072265625q0,0.41015625-0.3369140625,0.6591796875t-0.8056640625,0.3955078125t-0.9521484375,0.17578125t-0.7177734375,0.029296875q-0.791015625,0-1.6552734375-0.17578125t-1.1865234375-1.083984375q-0.41015625-1.435546875-0.76171875-4.0869140625t-0.6298828125-5.859375t-0.4833984375-6.73828125t-0.3515625-6.8115234375t-0.2197265625-6.005859375t-0.0732421875-4.3359375z M306.428515625,131.376953125q0-0.41015625,0.2490234375-0.6591796875t0.6591796875-0.3369140625t0.8642578125-0.1171875t0.9521484375-0.087890625q5.888671875-0.1171875,11.7919921875-0.234375t11.8505859375-0.1171875q1.025390625,0,1.552734375,0.4248046875t0.556640625,0.8935546875t-0.4833984375,0.8935546875t-1.6259765625,0.4248046875q-5.56640625,0-11.103515625,0.05859375t-11.103515625,0.05859375q-0.05859375,0-0.7177734375,0.029296875t-1.4208984375-0.05859375t-1.3916015625-0.3515625t-0.6298828125-0.8203125z"/><path fill="#" d=""/></svg>
